<?xml version="1.0" encoding="utf-8" standalone="no"?>
<!DOCTYPE svg PUBLIC "-//W3C//DTD SVG 1.1//EN"
  "http://www.w3.org/Graphics/SVG/1.1/DTD/svg11.dtd">
<svg xmlns:xlink="http://www.w3.org/1999/xlink" width="493.934295pt" height="284.380436pt" viewBox="0 0 493.934295 284.380436" xmlns="http://www.w3.org/2000/svg" version="1.1">
 <metadata>
  <rdf:RDF xmlns:dc="http://purl.org/dc/elements/1.1/" xmlns:cc="http://creativecommons.org/ns#" xmlns:rdf="http://www.w3.org/1999/02/22-rdf-syntax-ns#">
   <cc:Work>
    <dc:type rdf:resource="http://purl.org/dc/dcmitype/StillImage"/>
    <dc:date>2026-09-06T08:42:09.473766</dc:date>
    <dc:format>image/svg+xml</dc:format>
    <dc:creator>
     <cc:Agent>
      <dc:title>Matplotlib v3.11.1, https://matplotlib.org/</dc:title>
     </cc:Agent>
    </dc:creator>
   </cc:Work>
  </rdf:RDF>
 </metadata>
 <defs>
  <style type="text/css">*{stroke-linejoin: round; stroke-linecap: butt}</style>
 </defs>
 <g id="figure_1">
  <g id="patch_1">
   <path d="M 0 284.380436 
L 493.934295 284.380436 
L 493.934295 0 
L 0 0 
z
" style="fill: #ffffff"/>
  </g>
  <g id="axes_1">
   <g id="patch_2">
    <path d="M 281.678295 155.55941 
C 281.678295 140.128926 278.638826 124.848484 272.733835 110.592576 
C 266.828845 96.336668 258.17317 83.382535 247.26217 72.471535 
C 236.35117 61.560535 223.397037 52.90486 209.141129 46.99987 
C 194.88522 41.094879 179.604779 38.05541 164.174295 38.05541 
C 148.743811 38.05541 133.463369 41.094879 119.207461 46.99987 
C 104.951552 52.90486 91.997419 61.560535 81.086419 72.471535 
C 70.17542 83.382535 61.519745 96.336668 55.614754 110.592576 
C 49.709764 124.848484 46.670295 140.128926 46.670295 155.55941 
C 46.670295 170.989894 49.709764 186.270336 55.614754 200.526244 
C 61.519745 214.782152 70.17542 227.736286 81.086419 238.647285 
C 91.997419 249.558285 104.951552 258.21396 119.207461 264.118951 
C 133.463369 270.023941 148.743811 273.06341 164.174295 273.06341 
C 179.604779 273.06341 194.88522 270.023941 209.141129 264.118951 
C 223.397037 258.21396 236.35117 249.558285 247.26217 238.647285 
C 258.17317 227.736286 266.828845 214.782152 272.733835 200.526244 
C 278.638826 186.270336 281.678295 170.989894 281.678295 155.55941 
M 164.174295 155.55941 
C 164.174295 155.55941 164.174295 155.55941 164.174295 155.55941 
C 164.174295 155.55941 164.174295 155.55941 164.174295 155.55941 
C 164.174295 155.55941 164.174295 155.55941 164.174295 155.55941 
C 164.174295 155.55941 164.174295 155.55941 164.174295 155.55941 
C 164.174295 155.55941 164.174295 155.55941 164.174295 155.55941 
C 164.174295 155.55941 164.174295 155.55941 164.174295 155.55941 
C 164.174295 155.55941 164.174295 155.55941 164.174295 155.55941 
C 164.174295 155.55941 164.174295 155.55941 164.174295 155.55941 
C 164.174295 155.55941 164.174295 155.55941 164.174295 155.55941 
C 164.174295 155.55941 164.174295 155.55941 164.174295 155.55941 
C 164.174295 155.55941 164.174295 155.55941 164.174295 155.55941 
C 164.174295 155.55941 164.174295 155.55941 164.174295 155.55941 
C 164.174295 155.55941 164.174295 155.55941 164.174295 155.55941 
C 164.174295 155.55941 164.174295 155.55941 164.174295 155.55941 
C 164.174295 155.55941 164.174295 155.55941 164.174295 155.55941 
C 164.174295 155.55941 164.174295 155.55941 164.174295 155.55941 
z
" style="fill: #ffffff"/>
   </g>
   <g id="patch_3">
    <path d="M 164.174295 42.574795 
L 212.835622 139.748387 
L 230.584985 246.965884 
L 97.763604 246.965884 
L 56.71954 120.645244 
z
" clip-path="url(#p54fa58fc0c)" style="fill: #0072b2; opacity: 0.04; stroke: #0072b2; stroke-linejoin: miter"/>
   </g>
   <g id="patch_4">
    <path d="M 164.174295 44.236333 
L 271.629049 120.645244 
L 217.429776 228.859291 
L 116.704681 220.895728 
L 84.844255 129.783518 
z
" clip-path="url(#p54fa58fc0c)" style="fill: #009e73; opacity: 0.04; stroke: #009e73; stroke-linejoin: miter"/>
   </g>
   <g id="patch_5">
    <path d="M 164.174295 154.728641 
L 164.174295 155.55941 
L 185.357982 184.716255 
L 151.624857 172.83223 
L 89.939312 131.439002 
z
" clip-path="url(#p54fa58fc0c)" style="fill: #e69f00; opacity: 0.04; stroke: #e69f00; stroke-linejoin: miter"/>
   </g>
   <g id="patch_6">
    <path d="M 164.174295 155.55941 
L 209.193596 140.931753 
L 164.174295 155.55941 
L 164.174295 155.55941 
L 164.174295 155.55941 
z
" clip-path="url(#p54fa58fc0c)" style="fill: #d55e00; opacity: 0.04; stroke: #d55e00; stroke-linejoin: miter"/>
   </g>
   <g id="matplotlib.axis_1">
    <g id="xtick_1">
     <g id="line2d_1">
      <path d="M 164.174295 155.55941 
L 164.174295 38.05541 
" clip-path="url(#p54fa58fc0c)" style="fill: none; stroke: #d9d9d9; stroke-width: 0.5; stroke-linecap: square"/>
     </g>
     <g id="text_1">
      <!-- Macro-F1 -->
      <g transform="translate(144.923435 12.986807) scale(0.09 -0.09)">
       <defs>
        <path id="ArialMT-30" d="M 475 0 
L 475 4581 
L 1388 4581 
L 2472 1338 
Q 2622 884 2691 659 
Q 2769 909 2934 1394 
L 4031 4581 
L 4847 4581 
L 4847 0 
L 4263 0 
L 4263 3834 
L 2931 0 
L 2384 0 
L 1059 3900 
L 1059 0 
L 475 0 
z
" transform="scale(0.015625)"/>
        <path id="ArialMT-44" d="M 2588 409 
Q 2275 144 1986 34 
Q 1697 -75 1366 -75 
Q 819 -75 525 192 
Q 231 459 231 875 
Q 231 1119 342 1320 
Q 453 1522 633 1644 
Q 813 1766 1038 1828 
Q 1203 1872 1538 1913 
Q 2219 1994 2541 2106 
Q 2544 2222 2544 2253 
Q 2544 2597 2384 2738 
Q 2169 2928 1744 2928 
Q 1347 2928 1158 2789 
Q 969 2650 878 2297 
L 328 2372 
Q 403 2725 575 2942 
Q 747 3159 1072 3276 
Q 1397 3394 1825 3394 
Q 2250 3394 2515 3294 
Q 2781 3194 2906 3042 
Q 3031 2891 3081 2659 
Q 3109 2516 3109 2141 
L 3109 1391 
Q 3109 606 3145 398 
Q 3181 191 3288 0 
L 2700 0 
Q 2613 175 2588 409 
z
M 2541 1666 
Q 2234 1541 1622 1453 
Q 1275 1403 1131 1340 
Q 988 1278 909 1158 
Q 831 1038 831 891 
Q 831 666 1001 516 
Q 1172 366 1500 366 
Q 1825 366 2078 508 
Q 2331 650 2450 897 
Q 2541 1088 2541 1459 
L 2541 1666 
z
" transform="scale(0.015625)"/>
        <path id="ArialMT-46" d="M 2588 1216 
L 3141 1144 
Q 3050 572 2676 248 
Q 2303 -75 1759 -75 
Q 1078 -75 664 370 
Q 250 816 250 1647 
Q 250 2184 428 2587 
Q 606 2991 970 3192 
Q 1334 3394 1763 3394 
Q 2303 3394 2647 3120 
Q 2991 2847 3088 2344 
L 2541 2259 
Q 2463 2594 2264 2762 
Q 2066 2931 1784 2931 
Q 1359 2931 1093 2626 
Q 828 2322 828 1663 
Q 828 994 1084 691 
Q 1341 388 1753 388 
Q 2084 388 2306 591 
Q 2528 794 2588 1216 
z
" transform="scale(0.015625)"/>
        <path id="ArialMT-55" d="M 416 0 
L 416 3319 
L 922 3319 
L 922 2816 
Q 1116 3169 1280 3281 
Q 1444 3394 1641 3394 
Q 1925 3394 2219 3213 
L 2025 2691 
Q 1819 2813 1613 2813 
Q 1428 2813 1281 2702 
Q 1134 2591 1072 2394 
Q 978 2094 978 1738 
L 978 0 
L 416 0 
z
" transform="scale(0.015625)"/>
        <path id="ArialMT-52" d="M 213 1659 
Q 213 2581 725 3025 
Q 1153 3394 1769 3394 
Q 2453 3394 2887 2945 
Q 3322 2497 3322 1706 
Q 3322 1066 3130 698 
Q 2938 331 2570 128 
Q 2203 -75 1769 -75 
Q 1072 -75 642 372 
Q 213 819 213 1659 
z
M 791 1659 
Q 791 1022 1069 705 
Q 1347 388 1769 388 
Q 2188 388 2466 706 
Q 2744 1025 2744 1678 
Q 2744 2294 2464 2611 
Q 2184 2928 1769 2928 
Q 1347 2928 1069 2612 
Q 791 2297 791 1659 
z
" transform="scale(0.015625)"/>
        <path id="ArialMT-10" d="M 203 1375 
L 203 1941 
L 1931 1941 
L 1931 1375 
L 203 1375 
z
" transform="scale(0.015625)"/>
        <path id="ArialMT-29" d="M 525 0 
L 525 4581 
L 3616 4581 
L 3616 4041 
L 1131 4041 
L 1131 2622 
L 3281 2622 
L 3281 2081 
L 1131 2081 
L 1131 0 
L 525 0 
z
" transform="scale(0.015625)"/>
        <path id="ArialMT-14" d="M 2384 0 
L 1822 0 
L 1822 3584 
Q 1619 3391 1289 3197 
Q 959 3003 697 2906 
L 697 3450 
Q 1169 3672 1522 3987 
Q 1875 4303 2022 4600 
L 2384 4600 
L 2384 0 
z
" transform="scale(0.015625)"/>
       </defs>
       <use xlink:href="#ArialMT-30"/>
       <use xlink:href="#ArialMT-44" transform="translate(83.296875 0)"/>
       <use xlink:href="#ArialMT-46" transform="translate(138.90625 0)"/>
       <use xlink:href="#ArialMT-55" transform="translate(188.90625 0)"/>
       <use xlink:href="#ArialMT-52" transform="translate(222.203125 0)"/>
       <use xlink:href="#ArialMT-10" transform="translate(277.8125 0)"/>
       <use xlink:href="#ArialMT-29" transform="translate(311.109375 0)"/>
       <use xlink:href="#ArialMT-14" transform="translate(372.1875 0)"/>
      </g>
      <!-- predictivo -->
      <g transform="translate(144.916404 22.782217) scale(0.09 -0.09)">
       <defs>
        <path id="ArialMT-53" d="M 422 -1272 
L 422 3319 
L 934 3319 
L 934 2888 
Q 1116 3141 1344 3267 
Q 1572 3394 1897 3394 
Q 2322 3394 2647 3175 
Q 2972 2956 3137 2557 
Q 3303 2159 3303 1684 
Q 3303 1175 3120 767 
Q 2938 359 2589 142 
Q 2241 -75 1856 -75 
Q 1575 -75 1351 44 
Q 1128 163 984 344 
L 984 -1272 
L 422 -1272 
z
M 931 1641 
Q 931 1000 1190 694 
Q 1450 388 1819 388 
Q 2194 388 2461 705 
Q 2728 1022 2728 1688 
Q 2728 2322 2467 2637 
Q 2206 2953 1844 2953 
Q 1484 2953 1207 2617 
Q 931 2281 931 1641 
z
" transform="scale(0.015625)"/>
        <path id="ArialMT-48" d="M 2694 1069 
L 3275 997 
Q 3138 488 2766 206 
Q 2394 -75 1816 -75 
Q 1088 -75 661 373 
Q 234 822 234 1631 
Q 234 2469 665 2931 
Q 1097 3394 1784 3394 
Q 2450 3394 2872 2941 
Q 3294 2488 3294 1666 
Q 3294 1616 3291 1516 
L 816 1516 
Q 847 969 1125 678 
Q 1403 388 1819 388 
Q 2128 388 2347 550 
Q 2566 713 2694 1069 
z
M 847 1978 
L 2700 1978 
Q 2663 2397 2488 2606 
Q 2219 2931 1791 2931 
Q 1403 2931 1139 2672 
Q 875 2413 847 1978 
z
" transform="scale(0.015625)"/>
        <path id="ArialMT-47" d="M 2575 0 
L 2575 419 
Q 2259 -75 1647 -75 
Q 1250 -75 917 144 
Q 584 363 401 755 
Q 219 1147 219 1656 
Q 219 2153 384 2558 
Q 550 2963 881 3178 
Q 1213 3394 1622 3394 
Q 1922 3394 2156 3267 
Q 2391 3141 2538 2938 
L 2538 4581 
L 3097 4581 
L 3097 0 
L 2575 0 
z
M 797 1656 
Q 797 1019 1065 703 
Q 1334 388 1700 388 
Q 2069 388 2326 689 
Q 2584 991 2584 1609 
Q 2584 2291 2321 2609 
Q 2059 2928 1675 2928 
Q 1300 2928 1048 2622 
Q 797 2316 797 1656 
z
" transform="scale(0.015625)"/>
        <path id="ArialMT-4c" d="M 425 3934 
L 425 4581 
L 988 4581 
L 988 3934 
L 425 3934 
z
M 425 0 
L 425 3319 
L 988 3319 
L 988 0 
L 425 0 
z
" transform="scale(0.015625)"/>
        <path id="ArialMT-57" d="M 1650 503 
L 1731 6 
Q 1494 -44 1306 -44 
Q 1000 -44 831 53 
Q 663 150 594 308 
Q 525 466 525 972 
L 525 2881 
L 113 2881 
L 113 3319 
L 525 3319 
L 525 4141 
L 1084 4478 
L 1084 3319 
L 1650 3319 
L 1650 2881 
L 1084 2881 
L 1084 941 
Q 1084 700 1114 631 
Q 1144 563 1211 522 
Q 1278 481 1403 481 
Q 1497 481 1650 503 
z
" transform="scale(0.015625)"/>
        <path id="ArialMT-59" d="M 1344 0 
L 81 3319 
L 675 3319 
L 1388 1331 
Q 1503 1009 1600 663 
Q 1675 925 1809 1294 
L 2547 3319 
L 3125 3319 
L 1869 0 
L 1344 0 
z
" transform="scale(0.015625)"/>
       </defs>
       <use xlink:href="#ArialMT-53"/>
       <use xlink:href="#ArialMT-55" transform="translate(55.609375 0)"/>
       <use xlink:href="#ArialMT-48" transform="translate(88.90625 0)"/>
       <use xlink:href="#ArialMT-47" transform="translate(144.515625 0)"/>
       <use xlink:href="#ArialMT-4c" transform="translate(200.125 0)"/>
       <use xlink:href="#ArialMT-46" transform="translate(222.34375 0)"/>
       <use xlink:href="#ArialMT-57" transform="translate(272.34375 0)"/>
       <use xlink:href="#ArialMT-4c" transform="translate(300.125 0)"/>
       <use xlink:href="#ArialMT-59" transform="translate(322.34375 0)"/>
       <use xlink:href="#ArialMT-52" transform="translate(372.34375 0)"/>
      </g>
     </g>
    </g>
    <g id="xtick_2">
     <g id="line2d_2">
      <path d="M 164.174295 155.55941 
L 275.92724 119.248677 
" clip-path="url(#p54fa58fc0c)" style="fill: none; stroke: #d9d9d9; stroke-width: 0.5; stroke-linecap: square"/>
     </g>
     <g id="text_2">
      <!-- Inserción -->
      <g transform="translate(279.067964 109.727191) scale(0.09 -0.09)">
       <defs>
        <path id="ArialMT-2c" d="M 597 0 
L 597 4581 
L 1203 4581 
L 1203 0 
L 597 0 
z
" transform="scale(0.015625)"/>
        <path id="ArialMT-51" d="M 422 0 
L 422 3319 
L 928 3319 
L 928 2847 
Q 1294 3394 1984 3394 
Q 2284 3394 2536 3286 
Q 2788 3178 2913 3003 
Q 3038 2828 3088 2588 
Q 3119 2431 3119 2041 
L 3119 0 
L 2556 0 
L 2556 2019 
Q 2556 2363 2490 2533 
Q 2425 2703 2258 2804 
Q 2091 2906 1866 2906 
Q 1506 2906 1245 2678 
Q 984 2450 984 1813 
L 984 0 
L 422 0 
z
" transform="scale(0.015625)"/>
        <path id="ArialMT-56" d="M 197 991 
L 753 1078 
Q 800 744 1014 566 
Q 1228 388 1613 388 
Q 2000 388 2187 545 
Q 2375 703 2375 916 
Q 2375 1106 2209 1216 
Q 2094 1291 1634 1406 
Q 1016 1563 777 1677 
Q 538 1791 414 1992 
Q 291 2194 291 2438 
Q 291 2659 392 2848 
Q 494 3038 669 3163 
Q 800 3259 1026 3326 
Q 1253 3394 1513 3394 
Q 1903 3394 2198 3281 
Q 2494 3169 2634 2976 
Q 2775 2784 2828 2463 
L 2278 2388 
Q 2241 2644 2061 2787 
Q 1881 2931 1553 2931 
Q 1166 2931 1000 2803 
Q 834 2675 834 2503 
Q 834 2394 903 2306 
Q 972 2216 1119 2156 
Q 1203 2125 1616 2013 
Q 2213 1853 2448 1751 
Q 2684 1650 2818 1456 
Q 2953 1263 2953 975 
Q 2953 694 2789 445 
Q 2625 197 2315 61 
Q 2006 -75 1616 -75 
Q 969 -75 630 194 
Q 291 463 197 991 
z
" transform="scale(0.015625)"/>
        <path id="ArialMT-79" d="M 213 1659 
Q 213 2581 725 3025 
Q 1153 3394 1769 3394 
Q 2453 3394 2887 2945 
Q 3322 2497 3322 1706 
Q 3322 1066 3130 698 
Q 2938 331 2570 128 
Q 2203 -75 1769 -75 
Q 1072 -75 642 372 
Q 213 819 213 1659 
z
M 791 1659 
Q 791 1022 1069 705 
Q 1347 388 1769 388 
Q 2188 388 2466 706 
Q 2744 1025 2744 1678 
Q 2744 2294 2464 2611 
Q 2184 2928 1769 2928 
Q 1347 2928 1069 2612 
Q 791 2297 791 1659 
z
M 1457 3731 
L 1872 4606 
L 2610 4606 
L 1922 3731 
L 1457 3731 
z
" transform="scale(0.015625)"/>
       </defs>
       <use xlink:href="#ArialMT-2c"/>
       <use xlink:href="#ArialMT-51" transform="translate(27.78125 0)"/>
       <use xlink:href="#ArialMT-56" transform="translate(83.390625 0)"/>
       <use xlink:href="#ArialMT-48" transform="translate(133.390625 0)"/>
       <use xlink:href="#ArialMT-55" transform="translate(189 0)"/>
       <use xlink:href="#ArialMT-46" transform="translate(222.296875 0)"/>
       <use xlink:href="#ArialMT-4c" transform="translate(272.296875 0)"/>
       <use xlink:href="#ArialMT-79" transform="translate(294.515625 0)"/>
       <use xlink:href="#ArialMT-51" transform="translate(350.125 0)"/>
      </g>
      <!-- XAI -->
      <g transform="translate(290.072574 119.522602) scale(0.09 -0.09)">
       <defs>
        <path id="ArialMT-3b" d="M 28 0 
L 1800 2388 
L 238 4581 
L 959 4581 
L 1791 3406 
Q 2050 3041 2159 2844 
Q 2313 3094 2522 3366 
L 3444 4581 
L 4103 4581 
L 2494 2422 
L 4228 0 
L 3478 0 
L 2325 1634 
Q 2228 1775 2125 1941 
Q 1972 1691 1906 1597 
L 756 0 
L 28 0 
z
" transform="scale(0.015625)"/>
        <path id="ArialMT-24" d="M -9 0 
L 1750 4581 
L 2403 4581 
L 4278 0 
L 3588 0 
L 3053 1388 
L 1138 1388 
L 634 0 
L -9 0 
z
M 1313 1881 
L 2866 1881 
L 2388 3150 
Q 2169 3728 2063 4100 
Q 1975 3659 1816 3225 
L 1313 1881 
z
" transform="scale(0.015625)"/>
       </defs>
       <use xlink:href="#ArialMT-3b"/>
       <use xlink:href="#ArialMT-24" transform="translate(66.703125 0)"/>
       <use xlink:href="#ArialMT-2c" transform="translate(133.40625 0)"/>
      </g>
     </g>
    </g>
    <g id="xtick_3">
     <g id="line2d_3">
      <path d="M 164.174295 155.55941 
L 233.241413 250.622143 
" clip-path="url(#p54fa58fc0c)" style="fill: none; stroke: #d9d9d9; stroke-width: 0.5; stroke-linecap: square"/>
     </g>
     <g id="text_3">
      <!-- Eliminación -->
      <g transform="translate(223.457519 266.256422) scale(0.09 -0.09)">
       <defs>
        <path id="ArialMT-28" d="M 506 0 
L 506 4581 
L 3819 4581 
L 3819 4041 
L 1113 4041 
L 1113 2638 
L 3647 2638 
L 3647 2100 
L 1113 2100 
L 1113 541 
L 3925 541 
L 3925 0 
L 506 0 
z
" transform="scale(0.015625)"/>
        <path id="ArialMT-4f" d="M 409 0 
L 409 4581 
L 972 4581 
L 972 0 
L 409 0 
z
" transform="scale(0.015625)"/>
        <path id="ArialMT-50" d="M 422 0 
L 422 3319 
L 925 3319 
L 925 2853 
Q 1081 3097 1340 3245 
Q 1600 3394 1931 3394 
Q 2300 3394 2536 3241 
Q 2772 3088 2869 2813 
Q 3263 3394 3894 3394 
Q 4388 3394 4653 3120 
Q 4919 2847 4919 2278 
L 4919 0 
L 4359 0 
L 4359 2091 
Q 4359 2428 4304 2576 
Q 4250 2725 4106 2815 
Q 3963 2906 3769 2906 
Q 3419 2906 3187 2673 
Q 2956 2441 2956 1928 
L 2956 0 
L 2394 0 
L 2394 2156 
Q 2394 2531 2256 2718 
Q 2119 2906 1806 2906 
Q 1569 2906 1367 2781 
Q 1166 2656 1075 2415 
Q 984 2175 984 1722 
L 984 0 
L 422 0 
z
" transform="scale(0.015625)"/>
       </defs>
       <use xlink:href="#ArialMT-28"/>
       <use xlink:href="#ArialMT-4f" transform="translate(66.703125 0)"/>
       <use xlink:href="#ArialMT-4c" transform="translate(88.921875 0)"/>
       <use xlink:href="#ArialMT-50" transform="translate(111.140625 0)"/>
       <use xlink:href="#ArialMT-4c" transform="translate(194.4375 0)"/>
       <use xlink:href="#ArialMT-51" transform="translate(216.65625 0)"/>
       <use xlink:href="#ArialMT-44" transform="translate(272.265625 0)"/>
       <use xlink:href="#ArialMT-46" transform="translate(327.875 0)"/>
       <use xlink:href="#ArialMT-4c" transform="translate(377.875 0)"/>
       <use xlink:href="#ArialMT-79" transform="translate(400.09375 0)"/>
       <use xlink:href="#ArialMT-51" transform="translate(455.703125 0)"/>
      </g>
      <!-- XAI invertida -->
      <g transform="translate(220.955097 276.051832) scale(0.09 -0.09)">
       <defs>
        <path id="ArialMT-3" transform="scale(0.015625)"/>
       </defs>
       <use xlink:href="#ArialMT-3b"/>
       <use xlink:href="#ArialMT-24" transform="translate(66.703125 0)"/>
       <use xlink:href="#ArialMT-2c" transform="translate(133.40625 0)"/>
       <use xlink:href="#ArialMT-3" transform="translate(161.1875 0)"/>
       <use xlink:href="#ArialMT-4c" transform="translate(188.96875 0)"/>
       <use xlink:href="#ArialMT-51" transform="translate(211.1875 0)"/>
       <use xlink:href="#ArialMT-59" transform="translate(266.796875 0)"/>
       <use xlink:href="#ArialMT-48" transform="translate(316.796875 0)"/>
       <use xlink:href="#ArialMT-55" transform="translate(372.40625 0)"/>
       <use xlink:href="#ArialMT-57" transform="translate(405.703125 0)"/>
       <use xlink:href="#ArialMT-4c" transform="translate(433.484375 0)"/>
       <use xlink:href="#ArialMT-47" transform="translate(455.703125 0)"/>
       <use xlink:href="#ArialMT-44" transform="translate(511.3125 0)"/>
      </g>
     </g>
    </g>
    <g id="xtick_4">
     <g id="line2d_4">
      <path d="M 164.174295 155.55941 
L 95.107176 250.622143 
" clip-path="url(#p54fa58fc0c)" style="fill: none; stroke: #d9d9d9; stroke-width: 0.5; stroke-linecap: square"/>
     </g>
     <g id="text_4">
      <!-- Velocidad de -->
      <g transform="translate(56.111774 266.256422) scale(0.09 -0.09)">
       <defs>
        <path id="ArialMT-39" d="M 1803 0 
L 28 4581 
L 684 4581 
L 1875 1253 
Q 2019 853 2116 503 
Q 2222 878 2363 1253 
L 3600 4581 
L 4219 4581 
L 2425 0 
L 1803 0 
z
" transform="scale(0.015625)"/>
       </defs>
       <use xlink:href="#ArialMT-39"/>
       <use xlink:href="#ArialMT-48" transform="translate(61.1875 0)"/>
       <use xlink:href="#ArialMT-4f" transform="translate(116.796875 0)"/>
       <use xlink:href="#ArialMT-52" transform="translate(139.015625 0)"/>
       <use xlink:href="#ArialMT-46" transform="translate(194.625 0)"/>
       <use xlink:href="#ArialMT-4c" transform="translate(244.625 0)"/>
       <use xlink:href="#ArialMT-47" transform="translate(266.84375 0)"/>
       <use xlink:href="#ArialMT-44" transform="translate(322.453125 0)"/>
       <use xlink:href="#ArialMT-47" transform="translate(378.0625 0)"/>
       <use xlink:href="#ArialMT-3" transform="translate(433.671875 0)"/>
       <use xlink:href="#ArialMT-47" transform="translate(461.453125 0)"/>
       <use xlink:href="#ArialMT-48" transform="translate(517.0625 0)"/>
      </g>
      <!-- inferencia -->
      <g transform="translate(62.371696 276.051832) scale(0.09 -0.09)">
       <defs>
        <path id="ArialMT-49" d="M 556 0 
L 556 2881 
L 59 2881 
L 59 3319 
L 556 3319 
L 556 3672 
Q 556 4006 616 4169 
Q 697 4388 901 4523 
Q 1106 4659 1475 4659 
Q 1713 4659 2000 4603 
L 1916 4113 
Q 1741 4144 1584 4144 
Q 1328 4144 1222 4034 
Q 1116 3925 1116 3625 
L 1116 3319 
L 1763 3319 
L 1763 2881 
L 1116 2881 
L 1116 0 
L 556 0 
z
" transform="scale(0.015625)"/>
       </defs>
       <use xlink:href="#ArialMT-4c"/>
       <use xlink:href="#ArialMT-51" transform="translate(22.21875 0)"/>
       <use xlink:href="#ArialMT-49" transform="translate(77.828125 0)"/>
       <use xlink:href="#ArialMT-48" transform="translate(105.609375 0)"/>
       <use xlink:href="#ArialMT-55" transform="translate(161.21875 0)"/>
       <use xlink:href="#ArialMT-48" transform="translate(194.515625 0)"/>
       <use xlink:href="#ArialMT-51" transform="translate(250.125 0)"/>
       <use xlink:href="#ArialMT-46" transform="translate(305.734375 0)"/>
       <use xlink:href="#ArialMT-4c" transform="translate(355.734375 0)"/>
       <use xlink:href="#ArialMT-44" transform="translate(377.953125 0)"/>
      </g>
     </g>
    </g>
    <g id="xtick_5">
     <g id="line2d_5">
      <path d="M 164.174295 155.55941 
L 52.42135 119.248677 
" clip-path="url(#p54fa58fc0c)" style="fill: none; stroke: #d9d9d9; stroke-width: 0.5; stroke-linecap: square"/>
     </g>
     <g id="text_5">
      <!-- Compacidad -->
      <g transform="translate(5.76 109.727191) scale(0.09 -0.09)">
       <defs>
        <path id="ArialMT-26" d="M 3763 1606 
L 4369 1453 
Q 4178 706 3683 314 
Q 3188 -78 2472 -78 
Q 1731 -78 1267 223 
Q 803 525 561 1097 
Q 319 1669 319 2325 
Q 319 3041 592 3573 
Q 866 4106 1370 4382 
Q 1875 4659 2481 4659 
Q 3169 4659 3637 4309 
Q 4106 3959 4291 3325 
L 3694 3184 
Q 3534 3684 3231 3912 
Q 2928 4141 2469 4141 
Q 1941 4141 1586 3887 
Q 1231 3634 1087 3207 
Q 944 2781 944 2328 
Q 944 1744 1114 1308 
Q 1284 872 1643 656 
Q 2003 441 2422 441 
Q 2931 441 3284 734 
Q 3638 1028 3763 1606 
z
" transform="scale(0.015625)"/>
       </defs>
       <use xlink:href="#ArialMT-26"/>
       <use xlink:href="#ArialMT-52" transform="translate(72.21875 0)"/>
       <use xlink:href="#ArialMT-50" transform="translate(127.828125 0)"/>
       <use xlink:href="#ArialMT-53" transform="translate(211.125 0)"/>
       <use xlink:href="#ArialMT-44" transform="translate(266.734375 0)"/>
       <use xlink:href="#ArialMT-46" transform="translate(322.34375 0)"/>
       <use xlink:href="#ArialMT-4c" transform="translate(372.34375 0)"/>
       <use xlink:href="#ArialMT-47" transform="translate(394.5625 0)"/>
       <use xlink:href="#ArialMT-44" transform="translate(450.171875 0)"/>
       <use xlink:href="#ArialMT-47" transform="translate(505.78125 0)"/>
      </g>
      <!-- del modelo -->
      <g transform="translate(9.009844 119.522602) scale(0.09 -0.09)">
       <use xlink:href="#ArialMT-47"/>
       <use xlink:href="#ArialMT-48" transform="translate(55.609375 0)"/>
       <use xlink:href="#ArialMT-4f" transform="translate(111.21875 0)"/>
       <use xlink:href="#ArialMT-3" transform="translate(133.4375 0)"/>
       <use xlink:href="#ArialMT-50" transform="translate(161.21875 0)"/>
       <use xlink:href="#ArialMT-52" transform="translate(244.515625 0)"/>
       <use xlink:href="#ArialMT-47" transform="translate(300.125 0)"/>
       <use xlink:href="#ArialMT-48" transform="translate(355.734375 0)"/>
       <use xlink:href="#ArialMT-4f" transform="translate(411.34375 0)"/>
       <use xlink:href="#ArialMT-52" transform="translate(433.5625 0)"/>
      </g>
     </g>
    </g>
   </g>
   <g id="matplotlib.axis_2">
    <g id="ytick_1">
     <g id="line2d_6">
      <path d="M 164.174295 132.962487 
C 167.141695 132.962487 170.080242 133.547 172.821763 134.682575 
C 175.563284 135.818151 178.054463 137.482703 180.152732 139.580973 
C 182.251001 141.679242 183.915554 144.170421 185.051129 146.911942 
C 186.186704 149.653463 186.771218 152.592009 186.771218 155.55941 
C 186.771218 158.526811 186.186704 161.465357 185.051129 164.206878 
C 183.915554 166.948399 182.251001 169.439579 180.152732 171.537848 
C 178.054463 173.636117 175.563284 175.30067 172.821763 176.436245 
C 170.080242 177.57182 167.141695 178.156333 164.174295 178.156333 
C 161.206894 178.156333 158.268347 177.57182 155.526827 176.436245 
C 152.785306 175.30067 150.294126 173.636117 148.195857 171.537848 
C 146.097588 169.439579 144.433035 166.948399 143.29746 164.206878 
C 142.161885 161.465357 141.577372 158.526811 141.577372 155.55941 
C 141.577372 152.592009 142.161885 149.653463 143.29746 146.911942 
C 144.433035 144.170421 146.097588 141.679242 148.195857 139.580973 
C 150.294126 137.482703 152.785306 135.818151 155.526827 134.682575 
C 158.268347 133.547 161.206894 132.962487 164.174295 132.962487 
" clip-path="url(#p54fa58fc0c)" style="fill: none; stroke: #d9d9d9; stroke-width: 0.5; stroke-linecap: square"/>
     </g>
     <g id="text_6">
      <!-- 0.2 -->
      <g transform="translate(172.821763 132.998982) scale(0.08 -0.08)">
       <defs>
        <path id="ArialMT-13" d="M 266 2259 
Q 266 3072 433 3567 
Q 600 4063 929 4331 
Q 1259 4600 1759 4600 
Q 2128 4600 2406 4451 
Q 2684 4303 2865 4023 
Q 3047 3744 3150 3342 
Q 3253 2941 3253 2259 
Q 3253 1453 3087 958 
Q 2922 463 2592 192 
Q 2263 -78 1759 -78 
Q 1097 -78 719 397 
Q 266 969 266 2259 
z
M 844 2259 
Q 844 1131 1108 757 
Q 1372 384 1759 384 
Q 2147 384 2411 759 
Q 2675 1134 2675 2259 
Q 2675 3391 2411 3762 
Q 2147 4134 1753 4134 
Q 1366 4134 1134 3806 
Q 844 3388 844 2259 
z
" transform="scale(0.015625)"/>
        <path id="ArialMT-11" d="M 581 0 
L 581 641 
L 1222 641 
L 1222 0 
L 581 0 
z
" transform="scale(0.015625)"/>
        <path id="ArialMT-15" d="M 3222 541 
L 3222 0 
L 194 0 
Q 188 203 259 391 
Q 375 700 629 1000 
Q 884 1300 1366 1694 
Q 2113 2306 2375 2664 
Q 2638 3022 2638 3341 
Q 2638 3675 2398 3904 
Q 2159 4134 1775 4134 
Q 1369 4134 1125 3890 
Q 881 3647 878 3216 
L 300 3275 
Q 359 3922 746 4261 
Q 1134 4600 1788 4600 
Q 2447 4600 2831 4234 
Q 3216 3869 3216 3328 
Q 3216 3053 3103 2787 
Q 2991 2522 2730 2228 
Q 2469 1934 1863 1422 
Q 1356 997 1212 845 
Q 1069 694 975 541 
L 3222 541 
z
" transform="scale(0.015625)"/>
       </defs>
       <use xlink:href="#ArialMT-13"/>
       <use xlink:href="#ArialMT-11" transform="translate(55.609375 0)"/>
       <use xlink:href="#ArialMT-15" transform="translate(83.390625 0)"/>
      </g>
     </g>
    </g>
    <g id="ytick_2">
     <g id="line2d_7">
      <path d="M 164.174295 110.365564 
C 170.109096 110.365564 175.986189 111.53459 181.469231 113.805741 
C 186.952272 116.076891 191.934631 119.405997 196.13117 123.602535 
C 200.327708 127.799073 203.656814 132.781432 205.927964 138.264474 
C 208.199114 143.747516 209.368141 149.624609 209.368141 155.55941 
C 209.368141 161.494212 208.199114 167.371305 205.927964 172.854346 
C 203.656814 178.337388 200.327708 183.319747 196.13117 187.516285 
C 191.934631 191.712824 186.952272 195.041929 181.469231 197.31308 
C 175.986189 199.58423 170.109096 200.753256 164.174295 200.753256 
C 158.239493 200.753256 152.3624 199.58423 146.879358 197.31308 
C 141.396317 195.041929 136.413958 191.712824 132.21742 187.516285 
C 128.020881 183.319747 124.691775 178.337388 122.420625 172.854346 
C 120.149475 167.371305 118.980448 161.494212 118.980448 155.55941 
C 118.980448 149.624609 120.149475 143.747516 122.420625 138.264474 
C 124.691775 132.781432 128.020881 127.799073 132.21742 123.602535 
C 136.413958 119.405997 141.396317 116.076891 146.879358 113.805741 
C 152.3624 111.53459 158.239493 110.365564 164.174295 110.365564 
" clip-path="url(#p54fa58fc0c)" style="fill: none; stroke: #d9d9d9; stroke-width: 0.5; stroke-linecap: square"/>
     </g>
     <g id="text_7">
      <!-- 0.4 -->
      <g transform="translate(181.469231 112.122147) scale(0.08 -0.08)">
       <defs>
        <path id="ArialMT-17" d="M 2069 0 
L 2069 1097 
L 81 1097 
L 81 1613 
L 2172 4581 
L 2631 4581 
L 2631 1613 
L 3250 1613 
L 3250 1097 
L 2631 1097 
L 2631 0 
L 2069 0 
z
M 2069 1613 
L 2069 3678 
L 634 1613 
L 2069 1613 
z
" transform="scale(0.015625)"/>
       </defs>
       <use xlink:href="#ArialMT-13"/>
       <use xlink:href="#ArialMT-11" transform="translate(55.609375 0)"/>
       <use xlink:href="#ArialMT-17" transform="translate(83.390625 0)"/>
      </g>
     </g>
    </g>
    <g id="ytick_3">
     <g id="line2d_8">
      <path d="M 164.174295 87.768641 
C 173.076497 87.768641 181.892136 89.522181 190.116699 92.928906 
C 198.341261 96.335631 205.8148 101.32929 212.109607 107.624098 
C 218.404415 113.918905 223.398074 121.392443 226.804799 129.617006 
C 230.211524 137.841568 231.965064 146.657208 231.965064 155.55941 
C 231.965064 164.461612 230.211524 173.277252 226.804799 181.501814 
C 223.398074 189.726377 218.404415 197.199915 212.109607 203.494723 
C 205.8148 209.78953 198.341261 214.783189 190.116699 218.189914 
C 181.892136 221.59664 173.076497 223.350179 164.174295 223.350179 
C 155.272092 223.350179 146.456453 221.59664 138.23189 218.189914 
C 130.007328 214.783189 122.53379 209.78953 116.238982 203.494723 
C 109.944174 197.199915 104.950516 189.726377 101.54379 181.501814 
C 98.137065 173.277252 96.383525 164.461612 96.383525 155.55941 
C 96.383525 146.657208 98.137065 137.841568 101.54379 129.617006 
C 104.950516 121.392443 109.944174 113.918905 116.238982 107.624098 
C 122.53379 101.32929 130.007328 96.335631 138.23189 92.928906 
C 146.456453 89.522181 155.272092 87.768641 164.174295 87.768641 
" clip-path="url(#p54fa58fc0c)" style="fill: none; stroke: #d9d9d9; stroke-width: 0.5; stroke-linecap: square"/>
     </g>
     <g id="text_8">
      <!-- 0.6 -->
      <g transform="translate(190.116699 91.245312) scale(0.08 -0.08)">
       <defs>
        <path id="ArialMT-19" d="M 3184 3459 
L 2625 3416 
Q 2550 3747 2413 3897 
Q 2184 4138 1850 4138 
Q 1581 4138 1378 3988 
Q 1113 3794 959 3422 
Q 806 3050 800 2363 
Q 1003 2672 1297 2822 
Q 1591 2972 1913 2972 
Q 2475 2972 2870 2558 
Q 3266 2144 3266 1488 
Q 3266 1056 3080 686 
Q 2894 316 2569 119 
Q 2244 -78 1831 -78 
Q 1128 -78 684 439 
Q 241 956 241 2144 
Q 241 3472 731 4075 
Q 1159 4600 1884 4600 
Q 2425 4600 2770 4297 
Q 3116 3994 3184 3459 
z
M 888 1484 
Q 888 1194 1011 928 
Q 1134 663 1356 523 
Q 1578 384 1822 384 
Q 2178 384 2434 671 
Q 2691 959 2691 1453 
Q 2691 1928 2437 2201 
Q 2184 2475 1800 2475 
Q 1419 2475 1153 2201 
Q 888 1928 888 1484 
z
" transform="scale(0.015625)"/>
       </defs>
       <use xlink:href="#ArialMT-13"/>
       <use xlink:href="#ArialMT-11" transform="translate(55.609375 0)"/>
       <use xlink:href="#ArialMT-19" transform="translate(83.390625 0)"/>
      </g>
     </g>
    </g>
    <g id="ytick_4">
     <g id="line2d_9">
      <path d="M 164.174295 65.171718 
C 176.043898 65.171718 187.798084 67.509771 198.764167 72.052071 
C 209.73025 76.594372 219.694968 83.252583 228.088045 91.64566 
C 236.481122 100.038737 243.139333 110.003455 247.681634 120.969538 
C 252.223934 131.935621 254.561987 143.689807 254.561987 155.55941 
C 254.561987 167.429013 252.223934 179.183199 247.681634 190.149282 
C 243.139333 201.115366 236.481122 211.080084 228.088045 219.47316 
C 219.694968 227.866237 209.73025 234.524449 198.764167 239.066749 
C 187.798084 243.609049 176.043898 245.947102 164.174295 245.947102 
C 152.304692 245.947102 140.550506 243.609049 129.584422 239.066749 
C 118.618339 234.524449 108.653621 227.866237 100.260544 219.47316 
C 91.867468 211.080084 85.209256 201.115366 80.666956 190.149282 
C 76.124655 179.183199 73.786602 167.429013 73.786602 155.55941 
C 73.786602 143.689807 76.124655 131.935621 80.666956 120.969538 
C 85.209256 110.003455 91.867468 100.038737 100.260544 91.64566 
C 108.653621 83.252583 118.618339 76.594372 129.584422 72.052071 
C 140.550506 67.509771 152.304692 65.171718 164.174295 65.171718 
" clip-path="url(#p54fa58fc0c)" style="fill: none; stroke: #d9d9d9; stroke-width: 0.5; stroke-linecap: square"/>
     </g>
     <g id="text_9">
      <!-- 0.8 -->
      <g transform="translate(198.764167 70.368477) scale(0.08 -0.08)">
       <defs>
        <path id="ArialMT-1b" d="M 1131 2484 
Q 781 2613 612 2850 
Q 444 3088 444 3419 
Q 444 3919 803 4259 
Q 1163 4600 1759 4600 
Q 2359 4600 2725 4251 
Q 3091 3903 3091 3403 
Q 3091 3084 2923 2848 
Q 2756 2613 2416 2484 
Q 2838 2347 3058 2040 
Q 3278 1734 3278 1309 
Q 3278 722 2862 322 
Q 2447 -78 1769 -78 
Q 1091 -78 675 323 
Q 259 725 259 1325 
Q 259 1772 486 2073 
Q 713 2375 1131 2484 
z
M 1019 3438 
Q 1019 3113 1228 2906 
Q 1438 2700 1772 2700 
Q 2097 2700 2305 2904 
Q 2513 3109 2513 3406 
Q 2513 3716 2298 3927 
Q 2084 4138 1766 4138 
Q 1444 4138 1231 3931 
Q 1019 3725 1019 3438 
z
M 838 1322 
Q 838 1081 952 856 
Q 1066 631 1291 507 
Q 1516 384 1775 384 
Q 2178 384 2440 643 
Q 2703 903 2703 1303 
Q 2703 1709 2433 1975 
Q 2163 2241 1756 2241 
Q 1359 2241 1098 1978 
Q 838 1716 838 1322 
z
" transform="scale(0.015625)"/>
       </defs>
       <use xlink:href="#ArialMT-13"/>
       <use xlink:href="#ArialMT-11" transform="translate(55.609375 0)"/>
       <use xlink:href="#ArialMT-1b" transform="translate(83.390625 0)"/>
      </g>
     </g>
    </g>
    <g id="ytick_5">
     <g id="line2d_10">
      <path d="M 164.174295 42.574795 
C 179.011298 42.574795 193.704031 45.497361 207.411635 51.175237 
C 221.119239 56.853112 233.575136 65.175876 244.066482 75.667222 
C 254.557828 86.158568 262.880593 98.614466 268.558468 112.32207 
C 274.236344 126.029674 277.15891 140.722406 277.15891 155.55941 
C 277.15891 170.396414 274.236344 185.089146 268.558468 198.796751 
C 262.880593 212.504355 254.557828 224.960252 244.066482 235.451598 
C 233.575136 245.942944 221.119239 254.265708 207.411635 259.943584 
C 193.704031 265.621459 179.011298 268.544026 164.174295 268.544026 
C 149.337291 268.544026 134.644558 265.621459 120.936954 259.943584 
C 107.22935 254.265708 94.773453 245.942944 84.282107 235.451598 
C 73.790761 224.960252 65.467997 212.504355 59.790121 198.796751 
C 54.112245 185.089146 51.189679 170.396414 51.189679 155.55941 
C 51.189679 140.722406 54.112245 126.029674 59.790121 112.32207 
C 65.467997 98.614466 73.790761 86.158568 84.282107 75.667222 
C 94.773453 65.175876 107.22935 56.853112 120.936954 51.175237 
C 134.644558 45.497361 149.337291 42.574795 164.174295 42.574795 
" clip-path="url(#p54fa58fc0c)" style="fill: none; stroke: #d9d9d9; stroke-width: 0.5; stroke-linecap: square"/>
     </g>
     <g id="text_10">
      <!-- 1.0 -->
      <g transform="translate(207.411635 49.491643) scale(0.08 -0.08)">
       <use xlink:href="#ArialMT-14"/>
       <use xlink:href="#ArialMT-11" transform="translate(55.609375 0)"/>
       <use xlink:href="#ArialMT-13" transform="translate(83.390625 0)"/>
      </g>
     </g>
    </g>
   </g>
   <g id="line2d_11">
    <path d="M 164.174295 42.574795 
L 212.835622 139.748387 
L 230.584985 246.965884 
L 97.763604 246.965884 
L 56.71954 120.645244 
L 164.174295 42.574795 
" clip-path="url(#p54fa58fc0c)" style="fill: none; stroke: #0072b2; stroke-width: 1.5; stroke-linecap: square"/>
    <defs>
     <path id="m2643a797f9" d="M 0 1.5 
C 0.397805 1.5 0.77937 1.341951 1.06066 1.06066 
C 1.341951 0.77937 1.5 0.397805 1.5 0 
C 1.5 -0.397805 1.341951 -0.77937 1.06066 -1.06066 
C 0.77937 -1.341951 0.397805 -1.5 0 -1.5 
C -0.397805 -1.5 -0.77937 -1.341951 -1.06066 -1.06066 
C -1.341951 -0.77937 -1.5 -0.397805 -1.5 0 
C -1.5 0.397805 -1.341951 0.77937 -1.06066 1.06066 
C -0.77937 1.341951 -0.397805 1.5 0 1.5 
z
" style="stroke: #0072b2"/>
    </defs>
    <g clip-path="url(#p54fa58fc0c)">
     <use xlink:href="#m2643a797f9" x="164.174295" y="42.574795" style="fill: #0072b2; stroke: #0072b2"/>
     <use xlink:href="#m2643a797f9" x="212.835622" y="139.748387" style="fill: #0072b2; stroke: #0072b2"/>
     <use xlink:href="#m2643a797f9" x="230.584985" y="246.965884" style="fill: #0072b2; stroke: #0072b2"/>
     <use xlink:href="#m2643a797f9" x="97.763604" y="246.965884" style="fill: #0072b2; stroke: #0072b2"/>
     <use xlink:href="#m2643a797f9" x="56.71954" y="120.645244" style="fill: #0072b2; stroke: #0072b2"/>
     <use xlink:href="#m2643a797f9" x="164.174295" y="42.574795" style="fill: #0072b2; stroke: #0072b2"/>
    </g>
   </g>
   <g id="line2d_12">
    <path d="M 164.174295 44.236333 
L 271.629049 120.645244 
L 217.429776 228.859291 
L 116.704681 220.895728 
L 84.844255 129.783518 
L 164.174295 44.236333 
" clip-path="url(#p54fa58fc0c)" style="fill: none; stroke-dasharray: 5.55,2.4; stroke-dashoffset: 0; stroke: #009e73; stroke-width: 1.5"/>
    <defs>
     <path id="mfaaed95d1a" d="M 0 1.5 
C 0.397805 1.5 0.77937 1.341951 1.06066 1.06066 
C 1.341951 0.77937 1.5 0.397805 1.5 0 
C 1.5 -0.397805 1.341951 -0.77937 1.06066 -1.06066 
C 0.77937 -1.341951 0.397805 -1.5 0 -1.5 
C -0.397805 -1.5 -0.77937 -1.341951 -1.06066 -1.06066 
C -1.341951 -0.77937 -1.5 -0.397805 -1.5 0 
C -1.5 0.397805 -1.341951 0.77937 -1.06066 1.06066 
C -0.77937 1.341951 -0.397805 1.5 0 1.5 
z
" style="stroke: #009e73"/>
    </defs>
    <g clip-path="url(#p54fa58fc0c)">
     <use xlink:href="#mfaaed95d1a" x="164.174295" y="44.236333" style="fill: #009e73; stroke: #009e73"/>
     <use xlink:href="#mfaaed95d1a" x="271.629049" y="120.645244" style="fill: #009e73; stroke: #009e73"/>
     <use xlink:href="#mfaaed95d1a" x="217.429776" y="228.859291" style="fill: #009e73; stroke: #009e73"/>
     <use xlink:href="#mfaaed95d1a" x="116.704681" y="220.895728" style="fill: #009e73; stroke: #009e73"/>
     <use xlink:href="#mfaaed95d1a" x="84.844255" y="129.783518" style="fill: #009e73; stroke: #009e73"/>
     <use xlink:href="#mfaaed95d1a" x="164.174295" y="44.236333" style="fill: #009e73; stroke: #009e73"/>
    </g>
   </g>
   <g id="line2d_13">
    <path d="M 164.174295 154.728641 
L 164.174295 155.55941 
L 185.357982 184.716255 
L 151.624857 172.83223 
L 89.939312 131.439002 
L 164.174295 154.728641 
" clip-path="url(#p54fa58fc0c)" style="fill: none; stroke-dasharray: 9.6,2.4,1.5,2.4; stroke-dashoffset: 0; stroke: #e69f00; stroke-width: 1.5"/>
    <defs>
     <path id="m2c79c50d8f" d="M 0 1.5 
C 0.397805 1.5 0.77937 1.341951 1.06066 1.06066 
C 1.341951 0.77937 1.5 0.397805 1.5 0 
C 1.5 -0.397805 1.341951 -0.77937 1.06066 -1.06066 
C 0.77937 -1.341951 0.397805 -1.5 0 -1.5 
C -0.397805 -1.5 -0.77937 -1.341951 -1.06066 -1.06066 
C -1.341951 -0.77937 -1.5 -0.397805 -1.5 0 
C -1.5 0.397805 -1.341951 0.77937 -1.06066 1.06066 
C -0.77937 1.341951 -0.397805 1.5 0 1.5 
z
" style="stroke: #e69f00"/>
    </defs>
    <g clip-path="url(#p54fa58fc0c)">
     <use xlink:href="#m2c79c50d8f" x="164.174295" y="154.728641" style="fill: #e69f00; stroke: #e69f00"/>
     <use xlink:href="#m2c79c50d8f" x="164.174295" y="155.55941" style="fill: #e69f00; stroke: #e69f00"/>
     <use xlink:href="#m2c79c50d8f" x="185.357982" y="184.716255" style="fill: #e69f00; stroke: #e69f00"/>
     <use xlink:href="#m2c79c50d8f" x="151.624857" y="172.83223" style="fill: #e69f00; stroke: #e69f00"/>
     <use xlink:href="#m2c79c50d8f" x="89.939312" y="131.439002" style="fill: #e69f00; stroke: #e69f00"/>
     <use xlink:href="#m2c79c50d8f" x="164.174295" y="154.728641" style="fill: #e69f00; stroke: #e69f00"/>
    </g>
   </g>
   <g id="line2d_14">
    <path d="M 164.174295 155.55941 
L 209.193596 140.931753 
L 164.174295 155.55941 
L 164.174295 155.55941 
L 164.174295 155.55941 
L 164.174295 155.55941 
" clip-path="url(#p54fa58fc0c)" style="fill: none; stroke-dasharray: 1.5,2.475; stroke-dashoffset: 0; stroke: #d55e00; stroke-width: 1.5"/>
    <defs>
     <path id="md82e40f3cf" d="M 0 1.5 
C 0.397805 1.5 0.77937 1.341951 1.06066 1.06066 
C 1.341951 0.77937 1.5 0.397805 1.5 0 
C 1.5 -0.397805 1.341951 -0.77937 1.06066 -1.06066 
C 0.77937 -1.341951 0.397805 -1.5 0 -1.5 
C -0.397805 -1.5 -0.77937 -1.341951 -1.06066 -1.06066 
C -1.341951 -0.77937 -1.5 -0.397805 -1.5 0 
C -1.5 0.397805 -1.341951 0.77937 -1.06066 1.06066 
C -0.77937 1.341951 -0.397805 1.5 0 1.5 
z
" style="stroke: #d55e00"/>
    </defs>
    <g clip-path="url(#p54fa58fc0c)">
     <use xlink:href="#md82e40f3cf" x="164.174295" y="155.55941" style="fill: #d55e00; stroke: #d55e00"/>
     <use xlink:href="#md82e40f3cf" x="209.193596" y="140.931753" style="fill: #d55e00; stroke: #d55e00"/>
     <use xlink:href="#md82e40f3cf" x="164.174295" y="155.55941" style="fill: #d55e00; stroke: #d55e00"/>
     <use xlink:href="#md82e40f3cf" x="164.174295" y="155.55941" style="fill: #d55e00; stroke: #d55e00"/>
     <use xlink:href="#md82e40f3cf" x="164.174295" y="155.55941" style="fill: #d55e00; stroke: #d55e00"/>
     <use xlink:href="#md82e40f3cf" x="164.174295" y="155.55941" style="fill: #d55e00; stroke: #d55e00"/>
    </g>
   </g>
  </g>
  <g id="axes_2">
   <g id="patch_7">
    <path d="M 385.574295 248.87141 
L 488.174295 248.87141 
L 488.174295 76.07141 
L 385.574295 76.07141 
z
" style="fill: #ffffff"/>
   </g>
   <g id="patch_8">
    <path d="M 385.574295 103.196992 
L 463.670505 103.196992 
L 463.670505 113.243503 
L 385.574295 113.243503 
z
" clip-path="url(#p803ed8664e)" style="fill: #0072b2"/>
   </g>
   <g id="patch_9">
    <path d="M 385.574295 143.383038 
L 459.941909 143.383038 
L 459.941909 153.42955 
L 385.574295 153.42955 
z
" clip-path="url(#p803ed8664e)" style="fill: #009e73"/>
   </g>
   <g id="patch_10">
    <path d="M 385.574295 183.569085 
L 406.728291 183.569085 
L 406.728291 193.615596 
L 385.574295 193.615596 
z
" clip-path="url(#p803ed8664e)" style="fill: #e69f00"/>
   </g>
   <g id="patch_11">
    <path d="M 385.574295 223.755131 
L 392.922218 223.755131 
L 392.922218 233.801643 
L 385.574295 233.801643 
z
" clip-path="url(#p803ed8664e)" style="fill: #d55e00"/>
   </g>
   <g id="matplotlib.axis_3">
    <g id="xtick_6">
     <g id="line2d_15">
      <defs>
       <path id="m65d847495c" d="M 0 0 
L 0 3.5 
" style="stroke: #000000; stroke-width: 0.8"/>
      </defs>
      <g>
       <use xlink:href="#m65d847495c" x="385.574295" y="248.87141" style="stroke: #000000; stroke-width: 0.8"/>
      </g>
     </g>
     <g id="text_11">
      <!-- 0.0 -->
      <g transform="translate(379.319295 262.423656) scale(0.09 -0.09)">
       <use xlink:href="#ArialMT-13"/>
       <use xlink:href="#ArialMT-11" transform="translate(55.609375 0)"/>
       <use xlink:href="#ArialMT-13" transform="translate(83.390625 0)"/>
      </g>
     </g>
    </g>
    <g id="xtick_7">
     <g id="line2d_16">
      <g>
       <use xlink:href="#m65d847495c" x="429.420448" y="248.87141" style="stroke: #000000; stroke-width: 0.8"/>
      </g>
     </g>
     <g id="text_12">
      <!-- 0.5 -->
      <g transform="translate(423.165448 262.423656) scale(0.09 -0.09)">
       <defs>
        <path id="ArialMT-18" d="M 266 1200 
L 856 1250 
Q 922 819 1161 601 
Q 1400 384 1738 384 
Q 2144 384 2425 690 
Q 2706 997 2706 1503 
Q 2706 1984 2436 2262 
Q 2166 2541 1728 2541 
Q 1456 2541 1237 2417 
Q 1019 2294 894 2097 
L 366 2166 
L 809 4519 
L 3088 4519 
L 3088 3981 
L 1259 3981 
L 1013 2750 
Q 1425 3038 1878 3038 
Q 2478 3038 2890 2622 
Q 3303 2206 3303 1553 
Q 3303 931 2941 478 
Q 2500 -78 1738 -78 
Q 1113 -78 717 272 
Q 322 622 266 1200 
z
" transform="scale(0.015625)"/>
       </defs>
       <use xlink:href="#ArialMT-13"/>
       <use xlink:href="#ArialMT-11" transform="translate(55.609375 0)"/>
       <use xlink:href="#ArialMT-18" transform="translate(83.390625 0)"/>
      </g>
     </g>
    </g>
    <g id="xtick_8">
     <g id="line2d_17">
      <g>
       <use xlink:href="#m65d847495c" x="473.266602" y="248.87141" style="stroke: #000000; stroke-width: 0.8"/>
      </g>
     </g>
     <g id="text_13">
      <!-- 1.0 -->
      <g transform="translate(467.011602 262.423656) scale(0.09 -0.09)">
       <use xlink:href="#ArialMT-14"/>
       <use xlink:href="#ArialMT-11" transform="translate(55.609375 0)"/>
       <use xlink:href="#ArialMT-13" transform="translate(83.390625 0)"/>
      </g>
     </g>
    </g>
    <g id="text_14">
     <!-- Puntuación -->
     <g transform="translate(414.358123 274.869945) scale(0.09 -0.09)">
      <defs>
       <path id="ArialMT-33" d="M 494 0 
L 494 4581 
L 2222 4581 
Q 2678 4581 2919 4538 
Q 3256 4481 3484 4323 
Q 3713 4166 3852 3881 
Q 3991 3597 3991 3256 
Q 3991 2672 3619 2267 
Q 3247 1863 2275 1863 
L 1100 1863 
L 1100 0 
L 494 0 
z
M 1100 2403 
L 2284 2403 
Q 2872 2403 3119 2622 
Q 3366 2841 3366 3238 
Q 3366 3525 3220 3729 
Q 3075 3934 2838 4000 
Q 2684 4041 2272 4041 
L 1100 4041 
L 1100 2403 
z
" transform="scale(0.015625)"/>
       <path id="ArialMT-58" d="M 2597 0 
L 2597 488 
Q 2209 -75 1544 -75 
Q 1250 -75 995 37 
Q 741 150 617 320 
Q 494 491 444 738 
Q 409 903 409 1263 
L 409 3319 
L 972 3319 
L 972 1478 
Q 972 1038 1006 884 
Q 1059 663 1231 536 
Q 1403 409 1656 409 
Q 1909 409 2131 539 
Q 2353 669 2445 892 
Q 2538 1116 2538 1541 
L 2538 3319 
L 3100 3319 
L 3100 0 
L 2597 0 
z
" transform="scale(0.015625)"/>
      </defs>
      <use xlink:href="#ArialMT-33"/>
      <use xlink:href="#ArialMT-58" transform="translate(66.703125 0)"/>
      <use xlink:href="#ArialMT-51" transform="translate(122.3125 0)"/>
      <use xlink:href="#ArialMT-57" transform="translate(177.921875 0)"/>
      <use xlink:href="#ArialMT-58" transform="translate(205.703125 0)"/>
      <use xlink:href="#ArialMT-44" transform="translate(261.3125 0)"/>
      <use xlink:href="#ArialMT-46" transform="translate(316.921875 0)"/>
      <use xlink:href="#ArialMT-4c" transform="translate(366.921875 0)"/>
      <use xlink:href="#ArialMT-79" transform="translate(389.140625 0)"/>
      <use xlink:href="#ArialMT-51" transform="translate(444.75 0)"/>
     </g>
    </g>
   </g>
   <g id="matplotlib.axis_4"/>
   <g id="patch_12">
    <path d="M 385.574295 248.87141 
L 488.174295 248.87141 
" style="fill: none; stroke: #000000; stroke-width: 0.7; stroke-linejoin: miter; stroke-linecap: square"/>
   </g>
   <g id="text_15">
    <!-- YOLOv8n-cls -->
    <g transform="translate(385.574295 98.575596) scale(0.09 -0.09)">
     <defs>
      <path id="Arial-BoldMT-3c" d="M 1669 0 
L 1669 1928 
L -9 4581 
L 1075 4581 
L 2153 2769 
L 3209 4581 
L 4275 4581 
L 2591 1922 
L 2591 0 
L 1669 0 
z
" transform="scale(0.015625)"/>
      <path id="Arial-BoldMT-32" d="M 278 2263 
Q 278 2963 488 3438 
Q 644 3788 914 4066 
Q 1184 4344 1506 4478 
Q 1934 4659 2494 4659 
Q 3506 4659 4114 4031 
Q 4722 3403 4722 2284 
Q 4722 1175 4119 548 
Q 3516 -78 2506 -78 
Q 1484 -78 881 545 
Q 278 1169 278 2263 
z
M 1231 2294 
Q 1231 1516 1590 1114 
Q 1950 713 2503 713 
Q 3056 713 3411 1111 
Q 3766 1509 3766 2306 
Q 3766 3094 3420 3481 
Q 3075 3869 2503 3869 
Q 1931 3869 1581 3476 
Q 1231 3084 1231 2294 
z
" transform="scale(0.015625)"/>
      <path id="Arial-BoldMT-2f" d="M 491 0 
L 491 4544 
L 1416 4544 
L 1416 772 
L 3716 772 
L 3716 0 
L 491 0 
z
" transform="scale(0.015625)"/>
      <path id="Arial-BoldMT-59" d="M 1372 0 
L 34 3319 
L 956 3319 
L 1581 1625 
L 1763 1059 
Q 1834 1275 1853 1344 
Q 1897 1484 1947 1625 
L 2578 3319 
L 3481 3319 
L 2163 0 
L 1372 0 
z
" transform="scale(0.015625)"/>
      <path id="Arial-BoldMT-1b" d="M 1025 2472 
Q 684 2616 529 2867 
Q 375 3119 375 3419 
Q 375 3931 733 4265 
Q 1091 4600 1750 4600 
Q 2403 4600 2764 4265 
Q 3125 3931 3125 3419 
Q 3125 3100 2959 2851 
Q 2794 2603 2494 2472 
Q 2875 2319 3073 2025 
Q 3272 1731 3272 1347 
Q 3272 713 2867 316 
Q 2463 -81 1791 -81 
Q 1166 -81 750 247 
Q 259 634 259 1309 
Q 259 1681 443 1992 
Q 628 2303 1025 2472 
z
M 1206 3356 
Q 1206 3094 1354 2947 
Q 1503 2800 1750 2800 
Q 2000 2800 2150 2948 
Q 2300 3097 2300 3359 
Q 2300 3606 2151 3754 
Q 2003 3903 1759 3903 
Q 1506 3903 1356 3753 
Q 1206 3603 1206 3356 
z
M 1125 1394 
Q 1125 1031 1311 828 
Q 1497 625 1775 625 
Q 2047 625 2225 820 
Q 2403 1016 2403 1384 
Q 2403 1706 2222 1901 
Q 2041 2097 1763 2097 
Q 1441 2097 1283 1875 
Q 1125 1653 1125 1394 
z
" transform="scale(0.015625)"/>
      <path id="Arial-BoldMT-51" d="M 3478 0 
L 2600 0 
L 2600 1694 
Q 2600 2231 2544 2389 
Q 2488 2547 2361 2634 
Q 2234 2722 2056 2722 
Q 1828 2722 1647 2597 
Q 1466 2472 1398 2265 
Q 1331 2059 1331 1503 
L 1331 0 
L 453 0 
L 453 3319 
L 1269 3319 
L 1269 2831 
Q 1703 3394 2363 3394 
Q 2653 3394 2893 3289 
Q 3134 3184 3257 3021 
Q 3381 2859 3429 2653 
Q 3478 2447 3478 2063 
L 3478 0 
z
" transform="scale(0.015625)"/>
      <path id="Arial-BoldMT-10" d="M 359 1222 
L 359 2100 
L 2084 2100 
L 2084 1222 
L 359 1222 
z
" transform="scale(0.015625)"/>
      <path id="Arial-BoldMT-46" d="M 3353 2338 
L 2488 2181 
Q 2444 2441 2289 2572 
Q 2134 2703 1888 2703 
Q 1559 2703 1364 2476 
Q 1169 2250 1169 1719 
Q 1169 1128 1367 884 
Q 1566 641 1900 641 
Q 2150 641 2309 783 
Q 2469 925 2534 1272 
L 3397 1125 
Q 3263 531 2881 228 
Q 2500 -75 1859 -75 
Q 1131 -75 698 384 
Q 266 844 266 1656 
Q 266 2478 700 2936 
Q 1134 3394 1875 3394 
Q 2481 3394 2839 3133 
Q 3197 2872 3353 2338 
z
" transform="scale(0.015625)"/>
      <path id="Arial-BoldMT-4f" d="M 459 0 
L 459 4581 
L 1338 4581 
L 1338 0 
L 459 0 
z
" transform="scale(0.015625)"/>
      <path id="Arial-BoldMT-56" d="M 150 947 
L 1031 1081 
Q 1088 825 1259 692 
Q 1431 559 1741 559 
Q 2081 559 2253 684 
Q 2369 772 2369 919 
Q 2369 1019 2306 1084 
Q 2241 1147 2013 1200 
Q 950 1434 666 1628 
Q 272 1897 272 2375 
Q 272 2806 612 3100 
Q 953 3394 1669 3394 
Q 2350 3394 2681 3172 
Q 3013 2950 3138 2516 
L 2309 2363 
Q 2256 2556 2107 2659 
Q 1959 2763 1684 2763 
Q 1338 2763 1188 2666 
Q 1088 2597 1088 2488 
Q 1088 2394 1175 2328 
Q 1294 2241 1995 2081 
Q 2697 1922 2975 1691 
Q 3250 1456 3250 1038 
Q 3250 581 2869 253 
Q 2488 -75 1741 -75 
Q 1063 -75 667 200 
Q 272 475 150 947 
z
" transform="scale(0.015625)"/>
     </defs>
     <use xlink:href="#Arial-BoldMT-3c"/>
     <use xlink:href="#Arial-BoldMT-32" transform="translate(66.703125 0)"/>
     <use xlink:href="#Arial-BoldMT-2f" transform="translate(144.484375 0)"/>
     <use xlink:href="#Arial-BoldMT-32" transform="translate(205.5625 0)"/>
     <use xlink:href="#Arial-BoldMT-59" transform="translate(283.34375 0)"/>
     <use xlink:href="#Arial-BoldMT-1b" transform="translate(338.953125 0)"/>
     <use xlink:href="#Arial-BoldMT-51" transform="translate(394.5625 0)"/>
     <use xlink:href="#Arial-BoldMT-10" transform="translate(455.640625 0)"/>
     <use xlink:href="#Arial-BoldMT-46" transform="translate(488.9375 0)"/>
     <use xlink:href="#Arial-BoldMT-4f" transform="translate(544.546875 0)"/>
     <use xlink:href="#Arial-BoldMT-56" transform="translate(572.328125 0)"/>
    </g>
   </g>
   <g id="text_16">
    <!-- 0.89 -->
    <g transform="translate(465.424351 110.549349) scale(0.09 -0.09)">
     <defs>
      <path id="ArialMT-1c" d="M 350 1059 
L 891 1109 
Q 959 728 1153 556 
Q 1347 384 1650 384 
Q 1909 384 2104 503 
Q 2300 622 2425 820 
Q 2550 1019 2634 1356 
Q 2719 1694 2719 2044 
Q 2719 2081 2716 2156 
Q 2547 1888 2255 1720 
Q 1963 1553 1622 1553 
Q 1053 1553 659 1965 
Q 266 2378 266 3053 
Q 266 3750 677 4175 
Q 1088 4600 1706 4600 
Q 2153 4600 2523 4359 
Q 2894 4119 3086 3673 
Q 3278 3228 3278 2384 
Q 3278 1506 3087 986 
Q 2897 466 2520 194 
Q 2144 -78 1638 -78 
Q 1100 -78 759 220 
Q 419 519 350 1059 
z
M 2653 3081 
Q 2653 3566 2395 3850 
Q 2138 4134 1775 4134 
Q 1400 4134 1122 3828 
Q 844 3522 844 3034 
Q 844 2597 1108 2323 
Q 1372 2050 1759 2050 
Q 2150 2050 2401 2323 
Q 2653 2597 2653 3081 
z
" transform="scale(0.015625)"/>
     </defs>
     <use xlink:href="#ArialMT-13"/>
     <use xlink:href="#ArialMT-11" transform="translate(55.609375 0)"/>
     <use xlink:href="#ArialMT-1b" transform="translate(83.390625 0)"/>
     <use xlink:href="#ArialMT-1c" transform="translate(139 0)"/>
    </g>
   </g>
   <g id="text_17">
    <!-- ResNet-50 -->
    <g transform="translate(385.574295 138.761643) scale(0.09 -0.09)">
     <defs>
      <path id="Arial-BoldMT-35" d="M 469 0 
L 469 4581 
L 2416 4581 
Q 3150 4581 3483 4457 
Q 3816 4334 4016 4018 
Q 4216 3703 4216 3297 
Q 4216 2781 3912 2445 
Q 3609 2109 3006 2022 
Q 3306 1847 3501 1637 
Q 3697 1428 4028 894 
L 4588 0 
L 3481 0 
L 2813 997 
Q 2456 1531 2325 1670 
Q 2194 1809 2047 1861 
Q 1900 1913 1581 1913 
L 1394 1913 
L 1394 0 
L 469 0 
z
M 1394 2644 
L 2078 2644 
Q 2744 2644 2909 2700 
Q 3075 2756 3169 2893 
Q 3263 3031 3263 3238 
Q 3263 3469 3139 3611 
Q 3016 3753 2791 3791 
Q 2678 3806 2116 3806 
L 1394 3806 
L 1394 2644 
z
" transform="scale(0.015625)"/>
      <path id="Arial-BoldMT-48" d="M 2381 1056 
L 3256 909 
Q 3088 428 2723 176 
Q 2359 -75 1813 -75 
Q 947 -75 531 491 
Q 203 944 203 1634 
Q 203 2459 634 2926 
Q 1066 3394 1725 3394 
Q 2466 3394 2894 2905 
Q 3322 2416 3303 1406 
L 1103 1406 
Q 1113 1016 1316 798 
Q 1519 581 1822 581 
Q 2028 581 2168 693 
Q 2309 806 2381 1056 
z
M 2431 1944 
Q 2422 2325 2234 2523 
Q 2047 2722 1778 2722 
Q 1491 2722 1303 2513 
Q 1116 2303 1119 1944 
L 2431 1944 
z
" transform="scale(0.015625)"/>
      <path id="Arial-BoldMT-31" d="M 475 0 
L 475 4581 
L 1375 4581 
L 3250 1522 
L 3250 4581 
L 4109 4581 
L 4109 0 
L 3181 0 
L 1334 2988 
L 1334 0 
L 475 0 
z
" transform="scale(0.015625)"/>
      <path id="Arial-BoldMT-57" d="M 1981 3319 
L 1981 2619 
L 1381 2619 
L 1381 1281 
Q 1381 875 1398 808 
Q 1416 741 1477 697 
Q 1538 653 1625 653 
Q 1747 653 1978 738 
L 2053 56 
Q 1747 -75 1359 -75 
Q 1122 -75 931 4 
Q 741 84 652 211 
Q 563 338 528 553 
Q 500 706 500 1172 
L 500 2619 
L 97 2619 
L 97 3319 
L 500 3319 
L 500 3978 
L 1381 4491 
L 1381 3319 
L 1981 3319 
z
" transform="scale(0.015625)"/>
      <path id="Arial-BoldMT-18" d="M 284 1178 
L 1159 1269 
Q 1197 972 1381 798 
Q 1566 625 1806 625 
Q 2081 625 2272 848 
Q 2463 1072 2463 1522 
Q 2463 1944 2273 2155 
Q 2084 2366 1781 2366 
Q 1403 2366 1103 2031 
L 391 2134 
L 841 4519 
L 3163 4519 
L 3163 3697 
L 1506 3697 
L 1369 2919 
Q 1663 3066 1969 3066 
Q 2553 3066 2959 2641 
Q 3366 2216 3366 1538 
Q 3366 972 3038 528 
Q 2591 -78 1797 -78 
Q 1163 -78 763 262 
Q 363 603 284 1178 
z
" transform="scale(0.015625)"/>
      <path id="Arial-BoldMT-13" d="M 1756 4600 
Q 2422 4600 2797 4125 
Q 3244 3563 3244 2259 
Q 3244 959 2794 391 
Q 2422 -78 1756 -78 
Q 1088 -78 678 436 
Q 269 950 269 2269 
Q 269 3563 719 4131 
Q 1091 4600 1756 4600 
z
M 1756 3872 
Q 1597 3872 1472 3770 
Q 1347 3669 1278 3406 
Q 1188 3066 1188 2259 
Q 1188 1453 1269 1151 
Q 1350 850 1473 750 
Q 1597 650 1756 650 
Q 1916 650 2041 751 
Q 2166 853 2234 1116 
Q 2325 1453 2325 2259 
Q 2325 3066 2244 3367 
Q 2163 3669 2039 3770 
Q 1916 3872 1756 3872 
z
" transform="scale(0.015625)"/>
     </defs>
     <use xlink:href="#Arial-BoldMT-35"/>
     <use xlink:href="#Arial-BoldMT-48" transform="translate(72.21875 0)"/>
     <use xlink:href="#Arial-BoldMT-56" transform="translate(127.828125 0)"/>
     <use xlink:href="#Arial-BoldMT-31" transform="translate(183.4375 0)"/>
     <use xlink:href="#Arial-BoldMT-48" transform="translate(255.65625 0)"/>
     <use xlink:href="#Arial-BoldMT-57" transform="translate(311.265625 0)"/>
     <use xlink:href="#Arial-BoldMT-10" transform="translate(344.5625 0)"/>
     <use xlink:href="#Arial-BoldMT-18" transform="translate(377.859375 0)"/>
     <use xlink:href="#Arial-BoldMT-13" transform="translate(433.46875 0)"/>
    </g>
   </g>
   <g id="text_18">
    <!-- 0.85 -->
    <g transform="translate(461.695755 150.735395) scale(0.09 -0.09)">
     <use xlink:href="#ArialMT-13"/>
     <use xlink:href="#ArialMT-11" transform="translate(55.609375 0)"/>
     <use xlink:href="#ArialMT-1b" transform="translate(83.390625 0)"/>
     <use xlink:href="#ArialMT-18" transform="translate(139 0)"/>
    </g>
   </g>
   <g id="text_19">
    <!-- Swin-Tiny -->
    <g transform="translate(385.574295 178.947689) scale(0.09 -0.09)">
     <defs>
      <path id="Arial-BoldMT-36" d="M 231 1491 
L 1131 1578 
Q 1213 1125 1461 912 
Q 1709 700 2131 700 
Q 2578 700 2804 889 
Q 3031 1078 3031 1331 
Q 3031 1494 2936 1608 
Q 2841 1722 2603 1806 
Q 2441 1863 1863 2006 
Q 1119 2191 819 2459 
Q 397 2838 397 3381 
Q 397 3731 595 4036 
Q 794 4341 1167 4500 
Q 1541 4659 2069 4659 
Q 2931 4659 3367 4281 
Q 3803 3903 3825 3272 
L 2900 3231 
Q 2841 3584 2645 3739 
Q 2450 3894 2059 3894 
Q 1656 3894 1428 3728 
Q 1281 3622 1281 3444 
Q 1281 3281 1419 3166 
Q 1594 3019 2269 2859 
Q 2944 2700 3267 2529 
Q 3591 2359 3773 2064 
Q 3956 1769 3956 1334 
Q 3956 941 3737 597 
Q 3519 253 3119 86 
Q 2719 -81 2122 -81 
Q 1253 -81 787 320 
Q 322 722 231 1491 
z
" transform="scale(0.015625)"/>
      <path id="Arial-BoldMT-5a" d="M 1078 0 
L 28 3319 
L 881 3319 
L 1503 1144 
L 2075 3319 
L 2922 3319 
L 3475 1144 
L 4109 3319 
L 4975 3319 
L 3909 0 
L 3066 0 
L 2494 2134 
L 1931 0 
L 1078 0 
z
" transform="scale(0.015625)"/>
      <path id="Arial-BoldMT-4c" d="M 459 3769 
L 459 4581 
L 1338 4581 
L 1338 3769 
L 459 3769 
z
M 459 0 
L 459 3319 
L 1338 3319 
L 1338 0 
L 459 0 
z
" transform="scale(0.015625)"/>
      <path id="Arial-BoldMT-37" d="M 1497 0 
L 1497 3806 
L 138 3806 
L 138 4581 
L 3778 4581 
L 3778 3806 
L 2422 3806 
L 2422 0 
L 1497 0 
z
" transform="scale(0.015625)"/>
      <path id="Arial-BoldMT-5c" d="M 44 3319 
L 978 3319 
L 1772 963 
L 2547 3319 
L 3456 3319 
L 2284 125 
L 2075 -453 
Q 1959 -744 1854 -897 
Q 1750 -1050 1614 -1145 
Q 1478 -1241 1279 -1294 
Q 1081 -1347 831 -1347 
Q 578 -1347 334 -1294 
L 256 -606 
Q 463 -647 628 -647 
Q 934 -647 1081 -467 
Q 1228 -288 1306 -9 
L 44 3319 
z
" transform="scale(0.015625)"/>
     </defs>
     <use xlink:href="#Arial-BoldMT-36"/>
     <use xlink:href="#Arial-BoldMT-5a" transform="translate(66.703125 0)"/>
     <use xlink:href="#Arial-BoldMT-4c" transform="translate(144.484375 0)"/>
     <use xlink:href="#Arial-BoldMT-51" transform="translate(172.265625 0)"/>
     <use xlink:href="#Arial-BoldMT-10" transform="translate(233.34375 0)"/>
     <use xlink:href="#Arial-BoldMT-37" transform="translate(266.640625 0)"/>
     <use xlink:href="#Arial-BoldMT-4c" transform="translate(325.90625 0)"/>
     <use xlink:href="#Arial-BoldMT-51" transform="translate(353.6875 0)"/>
     <use xlink:href="#Arial-BoldMT-5c" transform="translate(414.765625 0)"/>
    </g>
   </g>
   <g id="text_20">
    <!-- 0.24 -->
    <g transform="translate(408.482137 190.921442) scale(0.09 -0.09)">
     <use xlink:href="#ArialMT-13"/>
     <use xlink:href="#ArialMT-11" transform="translate(55.609375 0)"/>
     <use xlink:href="#ArialMT-15" transform="translate(83.390625 0)"/>
     <use xlink:href="#ArialMT-17" transform="translate(139 0)"/>
    </g>
   </g>
   <g id="text_21">
    <!-- ViT-B/16 -->
    <g transform="translate(385.574295 219.133736) scale(0.09 -0.09)">
     <defs>
      <path id="Arial-BoldMT-39" d="M 1634 0 
L -3 4581 
L 1000 4581 
L 2159 1191 
L 3281 4581 
L 4263 4581 
L 2622 0 
L 1634 0 
z
" transform="scale(0.015625)"/>
      <path id="Arial-BoldMT-25" d="M 469 4581 
L 2300 4581 
Q 2844 4581 3111 4536 
Q 3378 4491 3589 4347 
Q 3800 4203 3940 3964 
Q 4081 3725 4081 3428 
Q 4081 3106 3907 2837 
Q 3734 2569 3438 2434 
Q 3856 2313 4081 2019 
Q 4306 1725 4306 1328 
Q 4306 1016 4161 720 
Q 4016 425 3764 248 
Q 3513 72 3144 31 
Q 2913 6 2028 0 
L 469 0 
L 469 4581 
z
M 1394 3819 
L 1394 2759 
L 2000 2759 
Q 2541 2759 2672 2775 
Q 2909 2803 3045 2939 
Q 3181 3075 3181 3297 
Q 3181 3509 3064 3642 
Q 2947 3775 2716 3803 
Q 2578 3819 1925 3819 
L 1394 3819 
z
M 1394 1997 
L 1394 772 
L 2250 772 
Q 2750 772 2884 800 
Q 3091 838 3220 983 
Q 3350 1128 3350 1372 
Q 3350 1578 3250 1722 
Q 3150 1866 2961 1931 
Q 2772 1997 2141 1997 
L 1394 1997 
z
" transform="scale(0.015625)"/>
      <path id="Arial-BoldMT-12" d="M -9 -78 
L 1125 4659 
L 1784 4659 
L 638 -78 
L -9 -78 
z
" transform="scale(0.015625)"/>
      <path id="Arial-BoldMT-14" d="M 2519 0 
L 1641 0 
L 1641 3309 
Q 1159 2859 506 2644 
L 506 3441 
Q 850 3553 1253 3867 
Q 1656 4181 1806 4600 
L 2519 4600 
L 2519 0 
z
" transform="scale(0.015625)"/>
      <path id="Arial-BoldMT-19" d="M 3247 3459 
L 2397 3366 
Q 2366 3628 2234 3753 
Q 2103 3878 1894 3878 
Q 1616 3878 1423 3628 
Q 1231 3378 1181 2588 
Q 1509 2975 1997 2975 
Q 2547 2975 2939 2556 
Q 3331 2138 3331 1475 
Q 3331 772 2918 347 
Q 2506 -78 1859 -78 
Q 1166 -78 719 461 
Q 272 1000 272 2228 
Q 272 3488 737 4044 
Q 1203 4600 1947 4600 
Q 2469 4600 2811 4308 
Q 3153 4016 3247 3459 
z
M 1256 1544 
Q 1256 1116 1453 883 
Q 1650 650 1903 650 
Q 2147 650 2309 840 
Q 2472 1031 2472 1466 
Q 2472 1913 2297 2120 
Q 2122 2328 1859 2328 
Q 1606 2328 1431 2129 
Q 1256 1931 1256 1544 
z
" transform="scale(0.015625)"/>
     </defs>
     <use xlink:href="#Arial-BoldMT-39"/>
     <use xlink:href="#Arial-BoldMT-4c" transform="translate(64.890625 0)"/>
     <use xlink:href="#Arial-BoldMT-37" transform="translate(92.671875 0)"/>
     <use xlink:href="#Arial-BoldMT-10" transform="translate(148.234375 0)"/>
     <use xlink:href="#Arial-BoldMT-25" transform="translate(181.53125 0)"/>
     <use xlink:href="#Arial-BoldMT-12" transform="translate(253.75 0)"/>
     <use xlink:href="#Arial-BoldMT-14" transform="translate(281.53125 0)"/>
     <use xlink:href="#Arial-BoldMT-19" transform="translate(337.140625 0)"/>
    </g>
   </g>
   <g id="text_22">
    <!-- 0.08 -->
    <g transform="translate(394.676064 231.107488) scale(0.09 -0.09)">
     <use xlink:href="#ArialMT-13"/>
     <use xlink:href="#ArialMT-11" transform="translate(55.609375 0)"/>
     <use xlink:href="#ArialMT-13" transform="translate(83.390625 0)"/>
     <use xlink:href="#ArialMT-1b" transform="translate(139 0)"/>
    </g>
   </g>
  </g>
 </g>
 <defs>
  <clipPath id="p54fa58fc0c">
   <path d="M 281.678295 155.55941 
C 281.678295 140.128926 278.638826 124.848484 272.733835 110.592576 
C 266.828845 96.336668 258.17317 83.382535 247.26217 72.471535 
C 236.35117 61.560535 223.397037 52.90486 209.141129 46.99987 
C 194.88522 41.094879 179.604779 38.05541 164.174295 38.05541 
C 148.743811 38.05541 133.463369 41.094879 119.207461 46.99987 
C 104.951552 52.90486 91.997419 61.560535 81.086419 72.471535 
C 70.17542 83.382535 61.519745 96.336668 55.614754 110.592576 
C 49.709764 124.848484 46.670295 140.128926 46.670295 155.55941 
C 46.670295 170.989894 49.709764 186.270336 55.614754 200.526244 
C 61.519745 214.782152 70.17542 227.736286 81.086419 238.647285 
C 91.997419 249.558285 104.951552 258.21396 119.207461 264.118951 
C 133.463369 270.023941 148.743811 273.06341 164.174295 273.06341 
C 179.604779 273.06341 194.88522 270.023941 209.141129 264.118951 
C 223.397037 258.21396 236.35117 249.558285 247.26217 238.647285 
C 258.17317 227.736286 266.828845 214.782152 272.733835 200.526244 
C 278.638826 186.270336 281.678295 170.989894 281.678295 155.55941 
M 164.174295 155.55941 
C 164.174295 155.55941 164.174295 155.55941 164.174295 155.55941 
C 164.174295 155.55941 164.174295 155.55941 164.174295 155.55941 
C 164.174295 155.55941 164.174295 155.55941 164.174295 155.55941 
C 164.174295 155.55941 164.174295 155.55941 164.174295 155.55941 
C 164.174295 155.55941 164.174295 155.55941 164.174295 155.55941 
C 164.174295 155.55941 164.174295 155.55941 164.174295 155.55941 
C 164.174295 155.55941 164.174295 155.55941 164.174295 155.55941 
C 164.174295 155.55941 164.174295 155.55941 164.174295 155.55941 
C 164.174295 155.55941 164.174295 155.55941 164.174295 155.55941 
C 164.174295 155.55941 164.174295 155.55941 164.174295 155.55941 
C 164.174295 155.55941 164.174295 155.55941 164.174295 155.55941 
C 164.174295 155.55941 164.174295 155.55941 164.174295 155.55941 
C 164.174295 155.55941 164.174295 155.55941 164.174295 155.55941 
C 164.174295 155.55941 164.174295 155.55941 164.174295 155.55941 
C 164.174295 155.55941 164.174295 155.55941 164.174295 155.55941 
C 164.174295 155.55941 164.174295 155.55941 164.174295 155.55941 
z
"/>
  </clipPath>
  <clipPath id="p803ed8664e">
   <rect x="385.574295" y="76.07141" width="102.6" height="172.8"/>
  </clipPath>
 </defs>
</svg>
